<svg width="22" height="19" viewBox="0 0 22 19" fill="none" xmlns="http://www.w3.org/2000/svg">
<path d="M18.4506 7.91667C18.2836 7.91667 17.7243 7.92162 17.5666 7.93151L14.3796 8.01562C14.363 8.01665 14.3465 8.01303 14.3319 8.00517C14.3172 7.99731 14.305 7.98551 14.2966 7.97109L7.93334 0.176146C7.89474 0.124667 7.84551 0.0822522 7.78904 0.0518381C7.73257 0.0214241 7.67021 0.0037367 7.60629 0H6.2858L9.87061 7.96615C9.87916 7.98438 9.88285 8.00454 9.88133 8.02465C9.87981 8.04476 9.87313 8.06413 9.86193 8.08085C9.85074 8.09757 9.83542 8.11106 9.81748 8.12001C9.79955 8.12897 9.77961 8.13306 9.75962 8.1319L3.78381 8.22096C3.72162 8.22286 3.65987 8.20996 3.60356 8.18331C3.54725 8.15666 3.49796 8.11701 3.4597 8.06758L1.64275 5.84102C1.49543 5.64805 1.21945 5.54414 0.979317 5.54414H0.0531616C-0.0101862 5.54414 -0.000855926 5.60401 0.0163315 5.66437L0.990611 9.19818C1.06426 9.38743 1.06426 9.59772 0.990611 9.78698L0.0153493 13.3099C-0.0136237 13.4064 -0.0101862 13.4583 0.102268 13.4583H0.982263C1.38199 13.4583 1.4365 13.4059 1.64079 13.1466L3.49212 10.8854C3.53071 10.8364 3.58006 10.797 3.63629 10.7704C3.69252 10.7438 3.75411 10.7306 3.81622 10.732L9.74244 10.8656C9.76401 10.8661 9.78514 10.8719 9.804 10.8825C9.82285 10.8931 9.83885 10.9082 9.8506 10.9264C9.86236 10.9446 9.86953 10.9655 9.87147 10.9871C9.87342 11.0088 9.87009 11.0306 9.86177 11.0507L6.2858 19H7.59401C7.65781 18.9963 7.72005 18.9786 7.77642 18.9483C7.8328 18.918 7.88198 18.8757 7.92057 18.8244L14.2971 11.0339C14.3162 11.0042 14.3953 10.9893 14.4292 10.9893L17.5671 11.0734C17.7292 11.0833 18.2836 11.0883 18.451 11.0883C20.625 11.0883 22 10.4861 22 9.5C22 8.51388 20.6309 7.91667 18.4506 7.91667Z" fill="#BE1279"/>
</svg>
