<svg width="38" height="37" viewBox="0 0 38 37" fill="none" xmlns="http://www.w3.org/2000/svg">
<ellipse cx="18.9458" cy="18.5" rx="18.9458" ry="18.5" fill="white" fill-opacity="0.43"/>
<g clip-path="url(#clip0_1_517)">
<path d="M18.3385 17.6856C19.684 17.6856 20.8492 17.2144 21.8011 16.2847C22.7531 15.3551 23.2357 14.2177 23.2357 12.9037C23.2357 11.5901 22.7531 10.4526 21.801 9.52272C20.8489 8.5933 19.6839 8.12207 18.3385 8.12207C16.9928 8.12207 15.828 8.5933 14.8761 9.52287C13.9241 10.4524 13.4413 11.59 13.4413 12.9037C13.4413 14.2177 13.9241 15.3553 14.8762 16.2848C15.8284 17.2143 16.9933 17.6856 18.3385 17.6856Z" fill="white"/>
<path d="M26.9073 23.3885C26.8798 23.0016 26.8243 22.5796 26.7425 22.134C26.66 21.6851 26.5538 21.2606 26.4266 20.8727C26.2952 20.4718 26.1165 20.0758 25.8956 19.6964C25.6663 19.3026 25.397 18.9596 25.0949 18.6775C24.7789 18.3822 24.392 18.1449 23.9446 17.9717C23.4988 17.7995 23.0047 17.7123 22.4762 17.7123C22.2687 17.7123 22.068 17.7954 21.6803 18.0419C21.4417 18.1938 21.1627 18.3695 20.8512 18.5638C20.5849 18.7296 20.224 18.8848 19.7784 19.0254C19.3436 19.1628 18.9021 19.2324 18.4664 19.2324C18.0306 19.2324 17.5893 19.1628 17.154 19.0254C16.7088 18.885 16.348 18.7297 16.082 18.564C15.7735 18.3715 15.4942 18.1958 15.2521 18.0417C14.8649 17.7953 14.664 17.7121 14.4565 17.7121C13.9278 17.7121 13.4339 17.7995 12.9883 17.9719C12.5412 18.1447 12.1542 18.3821 11.8379 18.6776C11.5359 18.9599 11.2664 19.3027 11.0374 19.6964C10.8167 20.0758 10.638 20.4716 10.5065 20.8729C10.3794 21.2608 10.2732 21.6851 10.1906 22.134C10.1089 22.579 10.0534 23.0012 10.0259 23.389C9.99891 23.7688 9.98526 24.1631 9.98526 24.5613C9.98526 25.5977 10.3226 26.4367 10.988 27.0555C11.6451 27.666 12.5145 27.9758 13.5718 27.9758H23.3618C24.4191 27.9758 25.2883 27.6662 25.9455 27.0555C26.611 26.4371 26.9484 25.598 26.9484 24.5612C26.9482 24.1611 26.9344 23.7666 26.9073 23.3885Z" fill="white"/>
</g>
<defs>
<clipPath id="clip0_1_517">
<rect width="20.3321" height="19.8537" fill="white" transform="translate(8.31738 8.12207)"/>
</clipPath>
</defs>
</svg>
