<svg width="13" height="12" viewBox="0 0 13 12" fill="none" xmlns="http://www.w3.org/2000/svg">
<path d="M6.4883 9.60108L3.57995 11.3531C3.45146 11.4349 3.31714 11.4699 3.17698 11.4582C3.03682 11.4465 2.91418 11.3998 2.80906 11.3181C2.70393 11.2363 2.62217 11.1342 2.56377 11.0118C2.50537 10.8889 2.49369 10.7516 2.52873 10.5997L3.29962 7.28841L0.724151 5.06334C0.607349 4.95822 0.534465 4.83838 0.505498 4.70383C0.476064 4.56974 0.484708 4.43845 0.531428 4.30997C0.578149 4.18149 0.64823 4.07637 0.741671 3.99461C0.835112 3.91285 0.963593 3.86029 1.12712 3.83693L4.52604 3.53908L5.84005 0.420485C5.89845 0.280324 5.98909 0.175202 6.11197 0.105121C6.23438 0.0350405 6.35982 0 6.4883 0C6.61678 0 6.74246 0.0350405 6.86534 0.105121C6.98774 0.175202 7.07815 0.280324 7.13655 0.420485L8.45057 3.53908L11.8495 3.83693C12.013 3.86029 12.1415 3.91285 12.2349 3.99461C12.3284 4.07637 12.3985 4.18149 12.4452 4.30997C12.4919 4.43845 12.5008 4.56974 12.4718 4.70383C12.4424 4.83838 12.3693 4.95822 12.2525 5.06334L9.67698 7.28841L10.4479 10.5997C10.4829 10.7516 10.4712 10.8889 10.4128 11.0118C10.3544 11.1342 10.2727 11.2363 10.1675 11.3181C10.0624 11.3998 9.93978 11.4465 9.79962 11.4582C9.65946 11.4699 9.52514 11.4349 9.39666 11.3531L6.4883 9.60108Z" fill="url(#paint0_linear_1_537)"/>
<defs>
<linearGradient id="paint0_linear_1_537" x1="6.48843" y1="0" x2="6.48843" y2="11.4604" gradientUnits="userSpaceOnUse">
<stop stop-color="#F2AE00"/>
<stop offset="1" stop-color="#FFD80A"/>
</linearGradient>
</defs>
</svg>
